<svg id="evBziYpU01S1" xmlns="http://www.w3.org/2000/svg" xmlns:xlink="http://www.w3.org/1999/xlink" viewBox="0 0 865.76 682.89" shape-rendering="geometricPrecision" text-rendering="geometricPrecision">
<style><![CDATA[
#evBziYpU01S2_to {animation: evBziYpU01S2_to__to 10000ms linear infinite normal forwards}@keyframes evBziYpU01S2_to__to { 0% {transform: translate(430.405609px,345.817902px)} 70% {transform: translate(379.177614px,339.38997px)} 100% {transform: translate(430.583481px,345.319526px)}} #evBziYpU01S19_to {animation: evBziYpU01S19_to__to 10000ms linear infinite normal forwards}@keyframes evBziYpU01S19_to__to { 0% {transform: translate(459.162994px,433.240586px)} 50% {transform: translate(483.491776px,391.559723px)} 100% {transform: translate(459.11724px,433.338453px)}} #evBziYpU01S36_to {animation: evBziYpU01S36_to__to 10000ms linear infinite normal forwards}@keyframes evBziYpU01S36_to__to { 0% {transform: translate(361.098602px,427.99498px)} 8% {transform: translate(362.000778px,423.202829px)} 30% {transform: translate(364.584269px,423.202829px)} 50% {transform: translate(364.584269px,424.924979px)} 63% {transform: translate(363.116317px,425.746377px)} 77% {transform: translate(358.78569px,423.011313px)} 89% {transform: translate(360.463178px,429.223043px)} 100% {transform: translate(360.463178px,429.223043px)}} #evBziYpU01S73_to {animation: evBziYpU01S73_to__to 10000ms linear infinite normal forwards}@keyframes evBziYpU01S73_to__to { 0% {transform: translate(295.700012px,523.865051px)} 40% {transform: translate(295.485159px,502.662699px)} 100% {transform: translate(295.700012px,523.865051px)}} #evBziYpU01S74_to {animation: evBziYpU01S74_to__to 10000ms linear infinite normal forwards}@keyframes evBziYpU01S74_to__to { 0% {transform: translate(310.737442px,528.438763px)} 30% {transform: translate(310.792152px,506.960365px)} 75% {transform: translate(310.737442px,530.385215px)} 100% {transform: translate(310.737442px,528.438763px)}} #evBziYpU01S75_to {animation: evBziYpU01S75_to__to 10000ms linear infinite normal forwards}@keyframes evBziYpU01S75_to__to { 0% {transform: translate(327.690002px,523.865051px)} 20% {transform: translate(327.690007px,520.080211px)} 50% {transform: translate(326.960002px,505.60946px)} 90% {transform: translate(327.690003px,524.640204px)} 100% {transform: translate(327.690002px,523.865051px)}} #evBziYpU01S79_to {animation: evBziYpU01S79_to__to 10000ms linear infinite normal forwards}@keyframes evBziYpU01S79_to__to { 0% {transform: translate(278.774994px,321.569992px)} 40% {transform: translate(276.208616px,296.837103px)} 60% {transform: translate(255.399169px,311.240666px)} 90% {transform: translate(271.88px,325.565765px)} 100% {transform: translate(278.806208px,321.569992px)}}
]]></style>
<g id="evBziYpU01S2_to" transform="translate(430.405609,345.817902)"><g transform="translate(-430.405609,-345.817902)" opacity="0.78"><g transform="translate(.000001 0)"><path d="M734.83,477.93c13.26-108.28-51-252.19-117.58-311.62C497,59,397.12,79.77,319.43,118.2s-88.78,166.72-142.43,224.8-84.15,136.12-2.77,213.84s147,38.23,232.14,33.3s197.93,33.89,259,.14C708,566.69,729,525.79,734.83,477.93Z" fill="#e1e1e1"/><path d="M734.83,477.93c13.26-108.28-51-252.19-117.58-311.62C497,59,397.12,79.77,319.43,118.2s-88.78,166.72-142.43,224.8-84.15,136.12-2.77,213.84s147,38.23,232.14,33.3s197.93,33.89,259,.14C708,566.69,729,525.79,734.83,477.93Z" opacity="0.7" fill="#e1e1e1"/></g></g></g><g opacity="0.7"><ellipse rx="203.86" ry="63.52" transform="translate(405.24 579.09)" fill="#e1e1e1"/><ellipse rx="203.86" ry="63.52" transform="translate(405.24 579.09)" opacity="0.5" fill="#e1e1e1"/></g><line x1="398.11" y1="474.12" x2="398.11" y2="75.18" fill="none" stroke="#011126" stroke-miterlimit="10"/><polyline points="138.79,478.06 390.45,478.06 772.76,601.47" fill="none" stroke="#011126" stroke-miterlimit="10"/><path d="M253.43,468.71h-17.43v-287.43h35.88L256.39,125.4h-46.45l-15.49,55.88h35.88v287.43h-17.44c-9.27292-.001444-16.83636,7.428523-17,16.7s0,.09,0,.13v.2v0c.52,4,17,7.22,37.24,7.22s36.72-3.22,37.24-7.22h.09c.007982-4.519079-1.783682-8.855365-4.979158-12.050842s-7.531763-4.98714-12.050842-4.979158Z" fill="#011126"/><path d="M485,55.4v338.43l254.8,41.92v-422.27Zm248.2,96.9l-129.56,7.34v-117.57L733.18,21.45ZM603.62,172l129.56-5.94v118.24l-129.56-6.06ZM593.11,277.75L489.27,272.9v-95.64l103.84-4.76Zm0-234v116.48l-103.84,5.89v-105.86ZM489.27,284l103.84,6v115.49L489.27,389ZM603.62,407.16v-116.54l129.56,7.45v129.71Z" fill="#ccc"/><path d="M379.88,299c0,0-46.2-5.47-76.6,18.24s-56.53,122.8-55.92,170.21s18.23,71.13,62.61,90.58s127,12.16,173.25-2.43s61.4-65.66,60.79-93-31-59-41.34-65.65-39.51-20.67-54.1-42.56-35.87-69.27-68.69-75.39Z" fill="#ccc"/><g transform="translate(-.296096 0.183594)" clip-path="url(#evBziYpU01S17)"><g><path d="M491.69,572.41c-17.47-2.36-38.18-7.1-53.86-16.62-33.11-20.1-41.39-57.94-53.21-72.13s-33.11-13-42.56-28.37s5.91-128.88-21.29-136c-5.528657-1.58347-11.249093-2.397791-17-2.42l-.53.39c-30.39,23.71-56.53,122.8-55.92,170.21s18.23,71.13,62.61,90.58s127,12.16,173.25-2.43c2.896571-.903905,5.738048-1.975719,8.51-3.21Z" transform="translate(0-.268138)" opacity="0.13"/></g><clipPath id="evBziYpU01S17"><path d="M379.88,299c0,0-46.2-5.47-76.6,18.24s-56.53,122.8-55.92,170.21s18.23,71.13,62.61,90.58s127,12.16,173.25-2.43s61.4-65.66,60.79-93-31-59-41.34-65.65-39.51-20.67-54.1-42.56-35.87-69.27-68.69-75.39Z" fill="#ccc"/></clipPath></g><g id="evBziYpU01S19_to" transform="translate(459.162994,433.240586)"><g transform="translate(-459.162994,-433.240585)"><path d="M361.69,320.47c0,0-30.15,5.77-35.48,11.09s-27.49,88.67-27.49,88.67s9.76-2.66,18.63.89s9.75,12.88,10.65,17.29s1.33,16,1.33,16s89.62-8,108.69-12.44s48.08-6.47,48.08-6.47-49-110.55-56.57-114.54-39-4.44-43.45-3.55-24.39,3.06-24.39,3.06Z" fill="#09749f"/><g opacity="0.13"><path d="M332,423.2v0c-.081687-.007424-.156771-.047971-.20778-.112204s-.073493-.146551-.06222-.227796l7.54-61.63c.007424-.081687.047971-.156771.112204-.20778s.146551-.073493.227796-.06222c.081687.007424.156771.047971.20778.112204s.073493.146551.06222.227796l-7.54,61.63c-.007424.081687-.047971.156771-.112204.20778s-.146551.073493-.227796.06222Z"/></g><g opacity="0.13"><path d="M337.74,378c-.065923-.003571-.128985-.028095-.18-.07-.066607-.047868-.11071-.12092-.122045-.202156s.011085-.163572.062045-.227844l10.2-13.3c.103061-.133789.294252-.160467.43-.06.065089.049387.10722.123184.116657.204342s-.014636.162654-.066657.225658L338,377.86c-.061774.082732-.156926.133968-.26.14Z"/></g><g opacity="0.13"><path d="M368.34,386c-.135746-.004607-.254804-.091917-.3-.22-.024902-.076905-.017714-.160606.019935-.232139s.102574-.124847.180065-.147861c.29-.1,29.09-9.33,48-9.33.171208,0,.31.138792.31.31s-.138792.31-.31.31c-18.8,0-47.5,9.2-47.79,9.29Z"/></g><g opacity="0.13"><path d="M412.67,398.37c-.146517-.001959-.271652-.106238-.3-.25-1.72-8.62-15.22-16.12-15.37-16.19-.085163-.047007-.143322-.131263-.157079-.22756s.018485-.193467.087079-.26244s2.09-2.13,1.69-4.15c-.32-1.62-3.73-2-5-2-.087862.003256-.172456-.033525-.23-.1-.061196-.063728-.08734-.153366-.07-.24l1.92-14.78c.025773-.169067.179928-.287986.35-.27.16793.025715.283878.181799.26.35L394,374.71c1.17.05,4.85.37,5.27,2.46.38,1.88-1,3.71-1.59,4.41c2.19,1.25,13.69,8.2,15.34,16.42.030329.168437-.081579.329584-.25.36Z"/></g><g transform="translate(0 0.000001)"><path d="M378.24,303.92c0,0-16.55,5.32-18.92,9.46s-.59,33.1-.59,36.65s2.07-2.07,3.84-6.21s8-10.34,10.05-9.75s3.25,3,3.25,6.8s4.73,9.13,8.87,12.13s8,5.91,8,5.91s8.57-12.42,10.64-15.67s1.78-10.05,2.07-12.41s5.62,6.5,6.8,4.14-2.66-4.44-6.8-10.94-2.95-13.3-9.16-18-13.29-3.29-18.05-2.11Z" fill="#09749f"/><g opacity="0.2"><path d="M378.24,303.92c0,0-16.55,5.32-18.92,9.46s-.59,33.1-.59,36.65s2.07-2.07,3.84-6.21s8-10.34,10.05-9.75s3.25,3,3.25,6.8s4.73,9.13,8.87,12.13s8,5.91,8,5.91s8.57-12.42,10.64-15.67s1.78-10.05,2.07-12.41s5.62,6.5,6.8,4.14-2.66-4.44-6.8-10.94-2.95-13.3-9.16-18-13.29-3.29-18.05-2.11Z"/></g><path d="M339.07,423.78c0,0-10.2-14.63-22.61-16s-27.49,8.87-27.93,12.41-3.55,22.62-1.33,25.28s10.64,4.87,27-.45s23.1-11.93,24.87-21.24Z" fill="#09749f"/><g opacity="0.2"><path d="M339.07,423.78c0,0-10.2-14.63-22.61-16s-27.49,8.87-27.93,12.41-3.55,22.62-1.33,25.28s10.64,4.87,27-.45s23.1-11.93,24.87-21.24Z"/></g><g id="evBziYpU01S36_to" transform="translate(361.098602,427.99498)"><path d="M304.49,427.77c0,0-16.64,6.61-17.29,19.51-.36,7.14,11.52,10.2,23.94,10.2s30.15-15.52,41.68-22.17s38.13-22.17,41.23-23.5s13.75,2.22,18.18,3.55s12.86,1.33,12.86,1.33s6.21,9.75,9.31,9.75-6.65-14.63-8-17.73-23.06-10.2-25.72-10.2-64.68,15.49-74.02,19.06-22.17,10.2-22.17,10.2Z" transform="translate(-361.098602,-427.99498)" fill="#f9b499"/></g><path d="M434.17,329.16l-13.51,76l97.54.44l14.51-72.07c.259546-1.29213-.063031-2.632993-.881869-3.665692s-2.050857-1.652455-3.368131-1.694308l-89.75-2.7c-2.219889-.068666-4.153513,1.502936-4.54,3.69Z" fill="#011126"/><path d="M434.17,329.16l-13.51,76l97.54.44l14.51-72.07c.259546-1.29213-.063031-2.632993-.881869-3.665692s-2.050857-1.652455-3.368131-1.694308l-89.75-2.7c-2.219889-.068666-4.153513,1.502936-4.54,3.69Z" opacity="0.2" fill="#fff"/><polygon points="420.66,405.16 373.16,438.75 481.79,435.65 518.2,405.6 420.66,405.16" fill="#011126"/><g opacity="0.2"><polygon points="420.66,405.16 373.16,438.75 481.79,435.65 518.2,405.6 420.66,405.16"/></g><path d="M456.57,438.41c0,0,39-34.14,77.59-45.67s46.56-9.75,45.67,7.54-19.51,107.72-31.92,130.8-27.91,65.18-27.49,73.16s15.52,31.48,28.82,39.9s12,18.63,3.54,20.4-18.17,4.88-47-13.75-40.8-45.22-39-51.87s20.39-15.52,27.93-28.82s19.95-63,20.84-85.58c.721847-14.27332,3.716142-28.340091,8.87-41.67s-48.77,8.86-63,17.73Z" fill="#f9b499"/><path d="M494.7,570.1c-.56,1-1.21,2-1.88,2.91c6.84.76,16.7,3.19,24.94,10.39c2.12054,1.846611,4.14329,3.802603,6.06,5.86c8.5-11.4,18.06-47.44,28.84-62.26c27.87-38.29,26.28-109.43,27.17-126.72s-7.09-19.06-45.67-7.54-77.59,45.67-77.59,45.67l4.88,22.17c14.19-8.87,63-17.73,63-17.73-5.153858,13.329909-8.148153,27.39668-8.87,41.67-.93,22.62-13.34,72.28-20.88,85.58Z" fill="#011126"/><g clip-path="url(#evBziYpU01S47)"><g><path d="M494.7,570.1c-.56,1-1.21,2-1.88,2.91c6.84.76,16.7,3.19,24.94,10.39c2.12054,1.846611,4.14329,3.802603,6.06,5.86c8.5-11.4,18.06-47.44,28.84-62.26c27.87-38.29,26.28-109.43,27.17-126.72s-7.09-19.06-45.67-7.54-77.59,45.67-77.59,45.67l4.88,22.17c14.19-8.87,63-17.73,63-17.73-5.153858,13.329909-8.148153,27.39668-8.87,41.67-.93,22.62-13.34,72.28-20.88,85.58Z" fill="#011126"/></g><clipPath id="evBziYpU01S47"><path d="M494.7,570.1c-.56,1-1.21,2-1.88,2.91c6.84.76,16.7,3.19,24.94,10.39c2.12054,1.846611,4.14329,3.802603,6.06,5.86c8.5-11.4,18.06-47.44,28.84-62.26c27.87-38.29,26.28-109.43,27.17-126.72s-7.09-19.06-45.67-7.54-77.59,45.67-77.59,45.67l4.88,22.17c14.19-8.87,63-17.73,63-17.73-5.153858,13.329909-8.148153,27.39668-8.87,41.67-.93,22.62-13.34,72.28-20.88,85.58Z" fill="#011126"/></clipPath></g><path d="M398.11,474.12c0,0,21.89-.61,41.95-7.9s-16.41-20.67-30.4-13.38c-8.009451,3.888387-12.653812,12.44527-11.55,21.28Z" fill="#3f3d56"/><path d="M398.11,474.12c0,0,21.89-.61,41.95-7.9s-16.41-20.67-30.4-13.38c-8.009451,3.888387-12.653812,12.44527-11.55,21.28Z" opacity="0.2"/><path d="M340.4,445.51c0,0-14.19,8-19.06,16.85s16.11,23.64,38.28,22.76s62.81-25,62.81-25s.44,39,8,53.2s42.12,48.78,55.87,57.64s59.85,42.13,67,47.45s20.39,15.07,23.5,15.52s35.47-39,43-52.32s14.18-41.24,11.52-47.45-8-.88-13.3,3.55-54.09,36.8-58.52,39c-2.421319,1.244322-4.943665,2.281361-7.54,3.1s-39.96-38.09-61.25-67.35-23.06-67-31-81.14-19.51-20.4-36.8-18.62-53.24,11.08-82.51,32.81Z" transform="translate(0-1)" fill="#f9b499"/><path d="M547.42,577.19C538,568,502.87,520.85,489,493.71c-20.34-39.76-22.54-53.31-30.52-67.49s-20-15.3-37.32-13.52-48.23,5-86.19,26.51c0,0-15.94,8.66-20.82,17.53s14.36,33.42,45.23,30.6c22.1-2,60.86-24.91,60.86-24.91s.92,36.73,8.46,50.91s42.12,48.78,55.86,57.64c8.72,5.63,30.44,21,47,32.95c4.13-14.85,11.44-22.93,15.86-26.74Z" fill="#011126"/><path d="M553.23,618.43c7.09,5.32,20.39,15.07,23.5,15.52s35.47-39,43-52.32s14.18-41.24,11.52-47.45-8-.88-13.3,3.55-54.09,36.8-58.52,39c-1.17.58-2.23,1.06-3.18,1.47-1.28,2.43-2.83,6.2-1.7,8.73c1.77,4,9.31,9.31,9.31,9.31l-13.41,20.12c1.2.89,2.15,1.64,2.78,2.07Z" fill="#09749f"/><path d="M619.74,581.63c7.53-13.31,14.18-41.24,11.52-47.45-1.54-3.59-4-3.31-6.78-1.58c1.86,8.29,0,24.28-9.18,41.49-8.17,15.36-33.42,42.5-46.15,55.73c3.45,2.27,6.34,3.95,7.58,4.13c3.1.44,35.47-39.02,43.01-52.32Z" fill="#fff"/><path d="M549.24,644.14c-13.3-8.42-28.38-31.92-28.82-39.9-.018694-.878185.051666-1.756004.21-2.62-2.648428.099219-5.201521,1.014281-7.31,2.62s-9.75-8.87-17.29-13.75c-5.4-3.49-12.37-4.48-15.9-4.76-6.44,5.29-12.4,9.57-13.36,13.19-1.78,6.65,10.2,33.25,39,51.87s38.57,15.52,47,13.75s9.77-11.97-3.53-20.4Z" fill="#09749f"/><path d="M551.45,647.25c-11.52-6.65-35-11.09-50.1-21.29s-11.08-19.06-22.17-26.16c-5.09-3.25-9.34-2.49-12.44-.71-1.54,6.92,10.46,33.23,39.05,51.7c28.82,18.63,38.57,15.52,47,13.75c5.6-1.18,8-6.08,5.15-11.71-1.813848-2.231576-4.011691-4.121247-6.49-5.58Z" fill="#fff"/><path d="M373.49,280.93c0,0,2.06,22.4,2.93,29.47s2.85,27.4,4.89,34.12s13.15,18.41,14.23,15.71s6.57-21,4.37-31.83-2.87-20.29-1.5-23s6.28-5.87,6.28-5.87c-5.727938-2.923676-11.289767-6.161956-16.66-9.7-7.9-5.32-13.46-11.31-14.54-8.9Z" fill="#f9b499"/><path d="M372.66,284.13c0,0,12.77,10.69,22.57,14.55s24.85,3.65,27-1.45-3.71-45.4-8.76-56-10.47-10.79-19.41-11.6-26.77,6.46-29.9,15.08.43,20.82,3,28c1.373791,4.011381,3.220109,7.845007,5.5,11.42Z" fill="#f9b499"/><path d="M407,267.64c-2.094891-.0392-4.067818-.992781-5.4-2.61-3.191663-3.857641-3.408695-9.373511-.53-13.47c1.223221-1.8248,3.245372-2.954554,5.440579-3.039594s4.298697.884893,5.659421,2.609594c3.176508,3.859613,3.393192,9.362568.53,13.46-1.260469,1.777809-3.263854,2.882617-5.44,3Zm-.24-18.51h-.23c-2.008138.107795-3.853732,1.137636-5,2.79-2.705344,3.864945-2.500826,9.059707.5,12.7c1.242377,1.581213,3.16778,2.47059,5.177124,2.391404s3.858786-1.117326,4.972876-2.791404c2.691584-3.868976,2.487425-9.054607-.5-12.7-1.220265-1.472272-3.018322-2.343947-4.93-2.39Z" fill="#3f3d56"/><path d="M420.67,265.56c-1.18,0-2.3-1-3.17-2.77-.92961-2.085552-1.429555-4.337005-1.47-6.62-.136275-2.276933.183302-4.558163.94-6.71.75-1.89,1.82-3,3-3s2.37.93,3.26,2.77c1.780781,4.230497,1.965555,8.96355.52,13.32-.74,1.9-1.82,3-3,3Zm-.59-18.5h-.08c-.94,0-1.85,1-2.49,2.63-1.375227,4.199286-1.194209,8.753123.51,12.83.77,1.58,1.74,2.46,2.68,2.43s1.84-1,2.48-2.63c.727383-2.072007,1.036681-4.267683.91-6.46v0c-.046108-2.198669-.525244-4.366675-1.41-6.38-.68-1.54-1.68-2.42-2.6-2.42Z" fill="#3f3d56"/><path d="M414,254.62v0c-.079875-.009928-.15241-.051537-.201303-.115474s-.070044-.14484-.058697-.224526c.05881-.476068.336097-.897546.75-1.14.716894-.280125,1.526046-.186473,2.16.25.072428.036288.127102.100324.151587.177546s.016699.161062-.021587.232454c-.075965.150271-.257992.212426-.41.14-.460813-.328439-1.0466-.427912-1.59-.27-.236004.154469-.395798.401424-.44.68-.007424.081687-.047971.156771-.112204.20778s-.146551.073493-.227796.06222Z" fill="#3f3d56"/><path d="M372.31,270c-.128835.000072-.244285-.079549-.29-.2-.056459-.157268.01759-.331501.17-.4l26.64-10.48c.07691-.029218.16228-.026666.237307.007096s.133555.095964.162693.172904c.055557.154507-.018993.325534-.17.39L372.42,270Z" fill="#3f3d56"/><path d="M374.8,269.76c0,0-1.8,3.55,3.2,3.74s8.4-2.27,6-5.26-6-5.94-2.32-9.94s10.9-7.38,6.87-11.85-18.93-.41-15.22-4s20.94-7.45,28.67-6.95s22.17-5.51,25.33-13.35-1.26-22.34-11.65-21.54-18.14,10-22.74,10.54-14.08-4.46-22,.1-8.2,17.3-8.91,18.87-11.42,3.93-13.31,14.81s3.09,19.56,7.52,24.4s6.44,6.7,6.44,6.7Z" fill="#3f3d56"/><g opacity="0.13"><path d="M353.37,255.06c-.075961.000087-.147066-.037337-.19-.1-.864407-1.46802-1.274984-3.159041-1.18-4.86c0-.127025.102975-.23.23-.23s.23.102975.23.23c-.087298,1.602499.298725,3.195277,1.11,4.58.033591.051593.045096.1145.03194.174643s-.049875.112501-.10194.145357c-.037401.030929-.082199.051604-.13.06Z"/><path d="M354,246c-.050782-.001429-.099801-.018936-.14-.05-.086364-.089185-.086364-.230815,0-.32c1.681432-1.938552,3.804476-3.444233,6.19-4.39c6.22-2.75,15.13-4.35,23.75-5.9c8.1-1.45,15.76-2.83,20.68-5c5.71-2.57,7.49-7.32,6.73-10.9s-3.69-5.59-7.7-5.59c-2.93,0-4.89.75-5.85,2.24-1.52,2.37.05,5.86.07,5.9.048804.115989-.004667.249666-.12.3-.05412.026904-.116925.030359-.173669.009553s-.10243-.064041-.126331-.119553c-.07-.15-1.69-3.76,0-6.34c1-1.62,3.14-2.45,6.23-2.45c4.24,0,7.36,2.28,8.15,6s-1.08,8.75-7,11.41c-5,2.22-12.65,3.6-20.78,5.06-8.59,1.55-17.48,3.15-23.64,5.87-2.311364.915965-4.369031,2.373479-6,4.25-.076128.064542-.185193.072621-.27.02Z"/><path d="M359,266.7c-.089303.001114-.171177-.04957-.21-.13-.09-.2-2.1-4.85,7.87-9.48c3.92-1.82,8.24-3.58,12.84-5.22.118661-.040077.247576.022158.29.14.040077.118661-.022158.247576-.14.29-4.58,1.64-8.88,3.39-12.8,5.21-9.52,4.42-7.67,8.82-7.65,8.86.030327.055061.035651.120466.01463.179707s-.06638.106662-.12463.130293Z"/><path d="M383.83,250.87c-.099397-.002611-.186891-.066243-.22-.16-.018807-.058345-.013546-.121783.014618-.176232s.076897-.095402.135382-.113768c1.48-.49,2.34-.74,2.34-.74.058345-.018807.121783-.013546.176232.014618s.095402.076897.113768.135382c.027534.123198-.041098.247594-.16.29s-.86.25-2.33.73Z"/></g><path d="M376.49,273.56c0,0-5.73-8.27-11.78-4.94s-1.33,15.1,2.3,19.2s10.67-3.5,11.37-5.46" fill="#f9b499"/></g></g></g><g transform="translate(.000001 0)"><path d="M330.51,562.44c0,0,8.49-10.34,9.73-2.44s-.61,22.5-6.69,28-9.12-3-9.12-3l3.65-4.87c0,0,3,6.08,5.47-3.64s-4.86-8.51-4.86-8.51Z" fill="#011126"/><path d="M324,601.34c-5,3.73-21.45,3.73-26.49,0-10.66-7.89-8.82-46-8.82-46h44.09c0,0,1.87,38.11-8.78,46Z" fill="#011126"/><g id="evBziYpU01S73_to" transform="translate(295.700012,523.865051)"><path d="M293.48,548.15c-.081283.002711-.160184-.027695-.218626-.084253s-.091419-.134419-.091374-.215747c.013786-1.921611.855689-3.743911,2.31-5c1.354166-1.140031,2.135818-2.819849,2.135818-4.59s-.781652-3.449969-2.135818-4.59c-1.458199-1.251951-2.297204-3.078093-2.297204-5s.839005-3.748049,2.297204-5c1.357722-1.140024,2.141765-2.822132,2.141765-4.595s-.784043-3.454976-2.141765-4.595c-1.455121-1.253771-2.291868-3.07924-2.291868-5s.836747-3.746229,2.291868-5c1.344158-1.152342,2.124435-2.829574,2.14-4.6-.002824-.080397.027876-.158355.08476-.21524s.134843-.087584.21524-.08476c.081283-.002711.160184.027695.218626.084253s.091419.134419.091374.215747c-.02027,1.918014-.856791,3.736538-2.3,5-1.357722,1.140024-2.141765,2.822132-2.141765,4.595s.784043,3.454976,2.141765,4.595c1.452059,1.255576,2.286564,3.080379,2.286564,5s-.834505,3.744424-2.286564,5c-1.357722,1.140024-2.141765,2.822132-2.141765,4.595s.784043,3.454976,2.141765,4.595c1.455121,1.253771,2.291868,3.07924,2.291868,5s-.836747,3.746229-2.291868,5c-1.344158,1.152342-2.124435,2.829574-2.14,4.6-.002608.07958-.036746.154859-.094892.209254s-.135531.083443-.215108.080746Z" transform="scale(1,0.683357) translate(-295.282517,-526.54021)" fill="#3f3d56"/></g><g id="evBziYpU01S74_to" transform="translate(310.737442,528.438763)"><path d="M308.71,548.15c-.080397.002824-.158355-.027876-.21524-.08476s-.087584-.134843-.08476-.21524c0-2,1.18-2.94,2.33-3.88s2.11-1.74,2.11-3.41-1-2.52-2.11-3.41-2.33-1.91-2.33-3.88s1.18-2.94,2.33-3.89s2.11-1.73,2.11-3.41-1-2.52-2.11-3.41-2.33-1.92-2.33-3.89s1.18-2.94,2.33-3.88s2.11-1.74,2.11-3.42c-.000045-.081328.032931-.15919.091374-.215747s.137343-.086964.218626-.084253c.080397-.002824.158355.027876.21524.08476s.087584.134843.08476.21524c0,2-1.18,3-2.33,3.89s-2.13,1.74-2.13,3.41s1,2.52,2.11,3.42s2.33,1.91,2.33,3.88-1.18,2.95-2.33,3.89-2.11,1.73-2.11,3.41s1,2.52,2.11,3.41s2.33,1.91,2.33,3.88-1.18,2.94-2.33,3.88-2.11,1.73-2.11,3.41c.00009.161857-.128232.294605-.29.3Z" transform="translate(-310.934967,-529.610062)" fill="#3f3d56"/></g><g id="evBziYpU01S75_to" transform="translate(327.690002,523.865051)"><path d="M325.47,548.15c-.081283.002711-.160184-.027695-.218626-.084253s-.091419-.134419-.091374-.215747c.013786-1.921611.855689-3.743911,2.31-5c1.354166-1.140031,2.135818-2.819849,2.135818-4.59s-.781652-3.449969-2.135818-4.59c-1.458199-1.251951-2.297204-3.078093-2.297204-5s.839005-3.748049,2.297204-5c1.357722-1.140024,2.141765-2.822132,2.141765-4.595s-.784043-3.454976-2.141765-4.595c-1.455121-1.253771-2.291868-3.07924-2.291868-5s.836747-3.746229,2.291868-5c1.344158-1.152342,2.124435-2.829574,2.14-4.6-.002824-.080397.027876-.158355.08476-.21524s.134843-.087584.21524-.08476c.081283-.002711.160184.027695.218626.084253s.091419.134419.091374.215747c-.02027,1.918014-.856791,3.736538-2.3,5-1.357722,1.140024-2.141765,2.822132-2.141765,4.595s.784043,3.454976,2.141765,4.595c1.452059,1.255576,2.286564,3.080379,2.286564,5s-.834505,3.744424-2.286564,5c-1.357722,1.140024-2.141765,2.822132-2.141765,4.595s.784043,3.454976,2.141765,4.595c1.455121,1.253771,2.291868,3.07924,2.291868,5s-.836747,3.746229-2.291868,5c-1.347386,1.149891-2.12839,2.828683-2.14,4.6-.002608.07958-.036746.154859-.094892.209254s-.135531.083443-.215108.080746Z" transform="translate(-327.690002,-523.865051)" fill="#3f3d56"/></g><g><path d="M332.78,555.33c0,1.1-9.87,2-22,2s-22-.9-22-2s9.87-2,22-2s22,.89,22,2Z" fill="#011126"/><path d="M332.78,555.33c0,1.1-9.87,2-22,2s-22-.9-22-2s9.87-2,22-2s22,.89,22,2Z" opacity="0.13"/></g></g><g id="evBziYpU01S79_to" transform="translate(278.774994,321.569992)"><g transform="translate(-278.774994,-321.569992)"><path d="M392.58,368.11l-82.37-40.33v-56.64c0-1.357908-.539427-2.6602-1.499613-3.620387s-2.262479-1.499613-3.620387-1.499613h-135c-1.357908,0-2.6602.539427-3.620387,1.499613s-1.499613,2.262479-1.499613,3.620387v100.86c0,1.357908.539427,2.6602,1.499613,3.620387s2.262479,1.499613,3.620387,1.499613h135c1.357908,0,2.6602-.539427,3.620387-1.499613s1.499613-2.262479,1.499613-3.620387v-25.34Z" fill="#ccc"/><g transform="translate(.000001 0)"><rect width="34.18" height="89.73" rx="0" ry="0" transform="translate(176.68 276.7)" opacity="0.2"/><rect width="4.27" height="89.73" rx="0" ry="0" transform="translate(298.4 276.7)" opacity="0.2"/><g transform="translate(.000001 0)"><g opacity="0.2"><path d="M288.85,279.14h-67.3c-.081283.002711-.160184-.027695-.218626-.084253s-.091419-.134419-.091374-.215747c0-.082217.032661-.161067.090797-.219203s.136986-.090797.219203-.090797h67.3c.081328-.000045.15919.032931.215747.091374s.086964.137343.084253.218626c.002824.080397-.027876.158355-.08476.21524s-.134843.087584-.21524.08476Z"/></g><g opacity="0.2"><path d="M288.85,288.76h-67.3c-.171208,0-.31-.138792-.31-.31s.138792-.31.31-.31h67.3c.171208,0,.31.138792.31.31s-.138792.31-.31.31Z"/></g><g opacity="0.2"><path d="M288.85,298.37h-67.3c-.122141.022207-.24575-.030595-.314152-.134194s-.068401-.238013,0-.341612.192011-.156401.314152-.134194h67.3c.147403.0268.254547.155181.254547.305s-.107144.2782-.254547.305Z"/></g><g opacity="0.2"><path d="M288.85,308h-67.3c-.171208,0-.31-.138792-.31-.31s.138792-.31.31-.31h67.3c.171208,0,.31.138792.31.31s-.138792.31-.31.31Z"/></g><g opacity="0.2"><path d="M288.85,331.49h-67.3c-.171208,0-.31-.138792-.31-.31s.138792-.31.31-.31h67.3c.171208,0,.31.138792.31.31s-.138792.31-.31.31Z"/></g><g opacity="0.2"><path d="M288.85,340h-67.3c-.081283.002711-.160184-.027695-.218626-.084253s-.091419-.134419-.091374-.215747c0-.082217.032661-.161067.090797-.219203s.136986-.090797.219203-.090797h67.3c.081328-.000045.15919.032931.215747.091374s.086964.137343.084253.218626c.002824.080397-.027876.158355-.08476.21524s-.134843.087584-.21524.08476Z"/></g><g opacity="0.2"><path d="M288.85,348.58h-67.3c-.082217,0-.161067-.032661-.219203-.090797s-.090797-.136986-.090797-.219203c-.000045-.081328.032931-.15919.091374-.215747s.137343-.086964.218626-.084253h67.3c.080397-.002824.158355.027876.21524.08476s.087584.134843.08476.21524c.002711.081283-.027695.160184-.084253.218626s-.134419.091419-.215747.091374Z"/></g><g opacity="0.2"><path d="M288.85,366.32h-67.3c-.171208,0-.31-.138792-.31-.31s.138792-.31.31-.31h67.3c.171208,0,.31.138792.31.31s-.138792.31-.31.31Z"/></g></g><g opacity="0.2"><path d="M176.68,366.74h-.11c-.076223-.027005-.138316-.083638-.172203-.15706s-.036699-.157416-.007797-.23294l34.19-89.74c.027005-.076223.083638-.138316.15706-.172203s.157416-.036699.23294-.007797c.07694.029138.139142.087667.172904.162693s.036314.160397.007096.237307L177,366.54c-.042774.13644-.178614.22134-.32.2Z"/></g></g></g></g><g opacity="0.5"><ellipse rx="29.66" ry="13.31" transform="translate(694.75 601.47)" fill="#e1e1e1"/><ellipse rx="29.66" ry="13.31" transform="translate(694.75 601.47)" opacity="0.5" fill="#e1e1e1"/></g><path d="M660.05,404.64c3.17,1.39,10.94,1.21,10.94,1.21s-1.67-5.08-1.81-5.39c-1.71-3.56-7.1-9.45-11.48-8.86-1.467122.238659-2.763389,1.090313-3.564859,2.342133s-1.032422,2.785535-.635141,4.217867c.73,3.04,3.84,5.3,6.55,6.48Z" fill="#011126"/><path d="M761.78,378.21c-4.4-.48-9.63,5.55-11.24,9.16-.14.31-1.75,5.44-1.67,5.44h.1c-.84.94-1.72,2-2.66,3.1-1.72,2.12-3.64,4.52-5.56,7.28-2.104071,2.946069-4.030816,6.014835-5.77,9.19-1.968239,3.546985-3.618035,7.261535-4.93,11.1s0,.09,0,.14c0-1.3,0-4.93-.07-5.2-.51-3.92-3.79-11.19-8.14-12-1.46331-.216276-2.949866.196002-4.092755,1.135075s-1.835631,2.317453-1.907245,3.794925c-.26,3.11,2,6.22,4.2,8.19c2.48,2.22,9.37,4.36,9.92,4.53-1.23386,3.931369-2.205987,7.940143-2.91,12-.42,2.37-.77,4.77-1.1,7.17c0-1.12,0-2.12,0-2.26-.51-3.92-3.8-11.19-8.15-12-1.462214-.219407-2.948975.190368-4.092316,1.127908s-1.836413,2.315227-1.907684,3.792092c-.25,3.11,2,6.23,4.21,8.2s8.07,3.94,9.62,4.43c-.11.93-.24,1.85-.35,2.78-.53,4.44-1,8.87-1.67,13.2-.23,1.53-.5,3-.77,4.52c0-1,0-1.83-.06-2-.5-3.92-3.79-11.19-8.14-12-1.462214-.219407-2.948975.190368-4.092316,1.127908s-1.836413,2.315227-1.907684,3.792092c-.25,3.11,2,6.23,4.21,8.2s7.5,3.75,9.34,4.34c-.32,1.53-.64,3.06-1,4.52-.28,1-.48,2-.82,3s-.63,1.95-.94,2.91c-.67,1.83-1.34,3.72-2,5.48-.48,1.23-.95,2.4-1.42,3.57.24-1.51.64-4.49.65-4.75-.048157-3.47604-.988181-6.881472-2.73-9.89.011295-.38798-.012132-.776193-.07-1.16-.187181-1.473525-.990939-2.798377-2.211371-3.645051s-2.742855-1.135612-4.188629-.794949c-4.28,1.14-7,8.65-7.19,12.59c0,.23.14,2.77.26,4.38-.21-.93-.41-1.84-.65-2.79-.44-1.9-1-3.77-1.48-5.79l-.89-2.92c-.27-1-.69-2-1-3-.85-2.32-1.81-4.62-2.84-6.92c1.65-.39,7.51-1.88,9.86-3.69s4.82-4.74,4.8-7.86c.041785-1.485459-.550323-2.918558-1.628421-3.94132s-2.540379-1.538606-4.021579-1.41868c-4.4.48-8.22,7.49-9,11.36-.05.24-.31,3.08-.42,4.64-.63-1.38-1.25-2.75-1.93-4.12-2-4-4.08-7.91-6.17-11.86-.64-1.2-1.27-2.42-1.9-3.63.6-.13,7.6-1.76,10.23-3.78c2.34-1.79,4.82-4.73,4.8-7.85.04149-1.486221-.550338-2.920099-1.628029-3.944383s-2.539774-1.54253-4.021971-1.425617c-4.4.48-8.22,7.49-9,11.36-.06.29-.43,4.38-.47,5.42-1.39-2.66-2.74-5.33-4-8-1.677695-3.620147-3.120677-7.34451-4.32-11.15.28-.07,7.59-1.73,10.29-3.8c2.34-1.79,4.82-4.73,4.8-7.86.038876-1.486389-.555555-2.919308-1.635173-3.941702s-2.542755-1.537985-4.024827-1.418298c-4.4.48-8.21,7.49-9,11.36-.06.3-.46,4.7-.47,5.5-.07-.22-.17-.44-.23-.66-1.206781-3.835803-2.07018-7.771292-2.58-11.76-.25-2.2-.36-4.31-.42-6.37c1.39-.17,7.75-1,10.39-2.61s5.31-4.18,5.63-7.28c.208151-1.468224-.217985-2.955685-1.172002-4.090965s-2.345864-1.811218-3.827998-1.859035c-4.42,0-9,6.53-10.21,10.29-.06.21-.51,2.36-.81,3.93c0-.93,0-1.89,0-2.78c0-3.34.22-6.41.43-9.12.13-1.54.28-2.93.43-4.23c1.28-.88,6.4-4.49,8-7.08s2.79-6.15,1.65-9.06c-.493721-1.405308-1.561144-2.534747-2.936362-3.10696s-2.928767-.533331-4.273638.10696c-3.93,2-5,10-4.31,13.84c0,.34,1.54,5.51,1.6,5.46l.08-.05c-.17,1.25-.34,2.59-.5,4.05-.27,2.71-.55,5.78-.63,9.14-.11777,3.618677-.030965,7.241118.26,10.85.30781,4.051599.97714,8.067577,2,12l.05.14c-.7-1.09-2.75-4.09-2.93-4.3-2.59-3-9.34-7.24-13.41-5.51-1.351078.619678-2.375406,1.784003-2.817896,3.203022s-.2615,2.959195.497896,4.236978c1.51,2.74,5.11,4.09,8,4.52c3.29.48,10.22-1.53,10.77-1.7c1.141539,3.965194,2.544614,7.850374,4.2,11.63c1,2.21,2,4.41,3,6.59-.64-.93-1.21-1.75-1.3-1.85-2.59-3-9.34-7.25-13.41-5.52-1.351078.619678-2.375406,1.784003-2.817896,3.203022s-.2615,2.959195.497896,4.236978c1.5,2.74,5.11,4.09,8,4.52s8.9-1.16,10.47-1.61c.42.84.82,1.67,1.24,2.51c2,4,4,8,5.89,11.94.66,1.39,1.25,2.79,1.85,4.19-.56-.82-1-1.51-1.13-1.61-2.58-3-9.33-7.24-13.4-5.51-1.353344.617233-2.379844,1.781526-2.822645,3.201541s-.260005,2.9614.502645,4.238459c1.5,2.74,5.1,4.09,8,4.52s8.33-1,10.19-1.53c.57,1.45,1.15,2.9,1.64,4.33.31,1,.68,1.91.94,2.92s.55,2,.82,2.94c.45,1.89.93,3.84,1.33,5.69.28,1.29.53,2.53.79,3.77-.64-1.4-2-4.11-2.08-4.32-2.1-3.35-8.13-8.58-12.42-7.48-1.43049.405267-2.620881,1.400218-3.273552,2.736093s-.705925,2.886399-.146448,4.263907c1.07,2.93,4.43,4.81,7.25,5.68c3.1.95,10,.08,10.84,0c.42,2.06.8,4.06,1.13,6c1.15,6.57,1.87,12.09,2.32,15.95.07.68.14,1.29.2,1.87h-13.25l4.28,83.54c.354337,6.337468,5.582692,11.302872,11.93,11.33v0c6.355495-.002346,11.595306-4.982804,11.92-11.33L721,512.86h-12.4l.27-.57c1.7-3.54,4.06-8.64,6.61-14.88.81-2,1.64-4.08,2.47-6.27.83.18,7.64,1.56,10.82.84c2.87-.65,6.36-2.28,7.65-5.12.658823-1.333056.720259-2.883248.168998-4.264262s-1.663302-2.462787-3.058998-2.975738c-4.2-1.41-10.6,3.36-12.94,6.54-.14.18-1.42,2.39-2.2,3.79.34-.9.67-1.76,1-2.69.67-1.82,1.29-3.66,2-5.64.29-1,.59-1.94.88-2.93s.52-2,.79-3.06c.57-2.4,1-4.85,1.44-7.33c1.6.58,7.31,2.56,10.26,2.36s6.64-1.29,8.34-3.91c.855644-1.215372,1.15374-2.737406.819797-4.185763s-1.268376-2.686212-2.569797-3.404237c-3.94-2-11,1.71-13.79,4.5-.17.17-2,2.4-2.91,3.64.23-1.5.47-3,.66-4.51.55-4.38,1-8.84,1.39-13.29.14-1.36.28-2.71.43-4.07.56.21,7.3,2.72,10.61,2.49c2.94-.21,6.64-1.29,8.34-3.91.851665-1.217609,1.146341-2.739548.81069-4.187044s-1.270065-2.684428-2.57069-3.402956c-3.93-2-11,1.71-13.78,4.5-.21.21-2.77,3.42-3.39,4.26.32-3,.66-6,1.12-8.88.594551-3.948034,1.446364-7.853015,2.55-11.69.26.1,7.28,2.75,10.67,2.51c2.94-.2,6.64-1.28,8.34-3.9.851665-1.217609,1.146341-2.739548.81069-4.187044s-1.270065-2.684428-2.57069-3.402956c-3.93-2-11,1.71-13.78,4.5-.22.21-3,3.67-3.43,4.33.06-.23.11-.46.18-.68c1.210562-3.815794,2.756598-7.516911,4.62-11.06c1-2,2.08-3.79,3.17-5.55c1.25.63,7,3.43,10.1,3.56s6.74-.56,8.72-3c.980708-1.117371,1.440608-2.598736,1.265129-4.075054s-.969819-2.8086-2.185129-3.664946c-3.68-2.45-11.1.5-14.19,3-.17.13-1.72,1.68-2.84,2.83.5-.78,1-1.6,1.5-2.34c1.85-2.79,3.71-5.23,5.38-7.38c1-1.21,1.86-2.29,2.7-3.29c1.56,0,7.82-.21,10.55-1.5s5.73-3.59,6.37-6.65c.363731-1.450368.08802-2.987083-.757232-4.22054s-2.178881-2.045212-3.662768-2.22946ZM713.07,496.39c-2.66,6.12-5.11,11.12-6.86,14.59l-1,1.88h-.3c-.08-.67-.18-1.41-.29-2.25-.54-3.89-1.38-9.44-2.7-16.05-.41-2.09-.89-4.32-1.4-6.59c2.069128-.834395,4.089064-1.785935,6.05-2.85c2.26,2.45,8.07,5.32,8.82,5.69-.76,1.94-1.55,3.82-2.32,5.58Z" fill="#011126"/><path d="M738.6,406.35c.07,0,1.41-5.16,1.46-5.5.54-3.91-.71-11.79-4.69-13.72-1.355857-.609407-2.906981-.613056-4.265689-.010034s-2.396616,1.755736-2.854311,3.170034c-1.07,2.93.28,6.53,1.88,9c1.87,2.92,8.46,7.06,8.47,7.06Z" fill="#011126"/></svg>
