<svg xmlns="http://www.w3.org/2000/svg" width="65" height="65" viewBox="0 0 65 65" fill="none">
  <g clip-path="url(#clip0_625_114)">
    <path d="M13.5416 13.5417C13.5416 12.1051 14.1123 10.7273 15.1281 9.7115C16.144 8.69568 17.5217 8.125 18.9583 8.125H46.0416C47.4782 8.125 48.856 8.69568 49.8718 9.7115C50.8876 10.7273 51.4583 12.1051 51.4583 13.5417V51.4583C51.4583 52.8949 50.8876 54.2727 49.8718 55.2885C48.856 56.3043 47.4782 56.875 46.0416 56.875H18.9583C17.5217 56.875 16.144 56.3043 15.1281 55.2885C14.1123 54.2727 13.5416 52.8949 13.5416 51.4583V13.5417Z" stroke="white" stroke-width="5"/>
    <path d="M24.375 18.9584H40.625" stroke="white" stroke-width="5" stroke-linecap="round"/>
    <path d="M24.375 29.7916H40.625" stroke="white" stroke-width="5" stroke-linecap="round"/>
    <path d="M24.375 40.625H35.2083" stroke="white" stroke-width="5" stroke-linecap="round"/>
  </g>
  <defs>
    <clipPath id="clip0_625_114">
      <rect width="65" height="65" fill="white"/>
    </clipPath>
  </defs>
</svg>