<svg width="615" height="488" viewBox="0 0 615 488" fill="none" xmlns="http://www.w3.org/2000/svg">
<path d="M590.025 339.472C604.18 336.955 615 323.207 615 306.624C615 290.041 604.18 276.293 590.025 273.776V339.472Z" fill="#F5F5F7"/>
<path d="M24.9746 339.061C10.8204 336.542 0 322.794 0 306.211C0 289.629 10.8204 275.881 24.9746 273.363V339.061Z" fill="#F5F5F7"/>
<path d="M415.203 256.213C415.203 270.851 403.322 282.718 388.668 282.718C374.013 282.718 362.132 270.851 362.132 256.213C362.132 241.575 374.013 229.708 388.668 229.708C403.322 229.708 415.203 241.575 415.203 256.213Z" fill="#F5F5F7"/>
<path d="M415.203 283.237C415.203 297.875 403.322 309.742 388.668 309.742C374.013 309.742 362.132 297.875 362.132 283.237C362.132 268.6 374.013 256.733 388.668 256.733C403.322 256.733 415.203 268.6 415.203 283.237Z" fill="#F5F5F7"/>
<path d="M362.132 255.693H415.203V282.718H362.132V255.693Z" fill="#F5F5F7"/>
<path d="M257.03 258.292C257.03 272.93 245.15 284.797 230.495 284.797C215.84 284.797 203.959 272.93 203.959 258.292C203.959 243.654 215.84 231.787 230.495 231.787C245.15 231.787 257.03 243.654 257.03 258.292Z" fill="#F5F5F7"/>
<path d="M257.03 285.316C257.03 299.954 245.15 311.821 230.495 311.821C215.84 311.821 203.959 299.954 203.959 285.316C203.959 270.678 215.84 258.812 230.495 258.812C245.15 258.812 257.03 270.678 257.03 285.316Z" fill="#F5F5F7"/>
<path d="M203.959 257.772H257.03V284.797H203.959V257.772Z" fill="#F5F5F7"/>
<path d="M347.563 35.8594C347.563 55.664 331.49 71.7189 311.662 71.7189C291.835 71.7189 275.761 55.664 275.761 35.8594C275.761 16.0548 291.835 0 311.662 0C331.49 0 347.563 16.0548 347.563 35.8594Z" fill="#F5F5F7"/>
<path d="M300.736 63.4036H322.589V128.886H300.736V63.4036Z" fill="#F5F5F7"/>
<path fill-rule="evenodd" clip-rule="evenodd" d="M208.122 125.248C111.283 125.248 32.7792 203.661 32.7792 300.388V312.861C32.7792 409.587 111.283 488 208.122 488H406.878C503.717 488 582.221 409.587 582.221 312.861V300.388C582.221 203.661 503.717 125.248 406.878 125.248H208.122ZM90.0127 300.388C90.0127 235.234 142.892 182.415 208.122 182.415H406.878C472.108 182.415 524.987 235.234 524.987 300.388V312.861C524.987 378.014 472.108 430.833 406.878 430.833H245.352L202.919 474.488V430.721C140.103 428 90.0127 376.273 90.0127 312.861V300.388Z" fill="#F5F5F7"/>
</svg>
