<svg id="e81yOHZpPta1" xmlns="http://www.w3.org/2000/svg" xmlns:xlink="http://www.w3.org/1999/xlink" viewBox="0 0 865.76 682.89" shape-rendering="geometricPrecision" text-rendering="geometricPrecision">
<style><![CDATA[
#e81yOHZpPta2_to {animation: e81yOHZpPta2_to__to 10000ms linear infinite normal forwards}@keyframes e81yOHZpPta2_to__to { 0% {transform: translate(595.255351px,603.757462px)} 50% {transform: translate(586.12px,572.472474px)} 100% {transform: translate(595.279868px,603.818082px)}} #e81yOHZpPta5_to {animation: e81yOHZpPta5_to__to 10000ms linear infinite normal forwards}@keyframes e81yOHZpPta5_to__to { 0% {transform: translate(460.057083px,294.06802px)} 50% {transform: translate(470.096186px,286.475012px)} 100% {transform: translate(460.025735px,294.008039px)}} #e81yOHZpPta58_to {animation: e81yOHZpPta58_to__to 10000ms linear infinite normal forwards}@keyframes e81yOHZpPta58_to__to { 0% {transform: translate(420.476191px,103.008988px)} 30% {transform: translate(404.439987px,114.135002px)} 54% {transform: translate(399.7001px,101.72338px)} 80% {transform: translate(406.43581px,99.888139px)} 100% {transform: translate(420.798653px,103.008988px)}} #e81yOHZpPta72_to {animation: e81yOHZpPta72_to__to 10000ms linear infinite normal forwards}@keyframes e81yOHZpPta72_to__to { 0% {transform: translate(125.07px,234.899994px)} 30% {transform: translate(118.088448px,224.997248px)} 55% {transform: translate(123.25991px,217.882599px)} 75% {transform: translate(110.563627px,226.125379px)} 80% {transform: translate(115.939995px,229.683143px)} 100% {transform: translate(125.058181px,234.834462px)}} #e81yOHZpPta101_to {animation: e81yOHZpPta101_to__to 10000ms linear infinite normal forwards}@keyframes e81yOHZpPta101_to__to { 0% {transform: translate(603.305008px,384.311859px)} 40% {transform: translate(615.011186px,372.898141px)} 80% {transform: translate(615.011188px,384.311859px)} 100% {transform: translate(603.216186px,384.341412px)}}
]]></style>
<g id="e81yOHZpPta2_to" transform="translate(595.255351,603.757462)"><g transform="translate(-585.603068,-611.481527)"><path d="M391.82,532.2c-15.44,2.82-87.85,18.09-73.28,55c2.102983,5.119264,5.450902,9.632424,9.74,13.13c18.18,15.25,83.33,52.58,272.06,32.22c10.69-1.15,21.42-1.86,32.17-2.06c49.73-.92,206-9.34,202-78.54c0,0-2.07-38.74-95.7-26.87l-71.21-4.43c0,0-160.55-12.38-268.7,10.11-2.33.53-4.7,1.01-7.08,1.44Z" fill="#09759f"/><path d="M391.82,532.2c-15.44,2.82-87.85,18.09-73.28,55c2.102983,5.119264,5.450902,9.632424,9.74,13.13c18.18,15.25,83.33,52.58,272.06,32.22c10.69-1.15,21.42-1.86,32.17-2.06c49.73-.92,206-9.34,202-78.54c0,0-2.07-38.74-95.7-26.87l-71.21-4.43c0,0-160.55-12.38-268.7,10.11-2.33.53-4.7,1.01-7.08,1.44Z" opacity="0.7" fill="#fff"/></g></g><g id="e81yOHZpPta5_to" transform="translate(460.057083,294.06802)"><g transform="translate(-449.986631,-301.601044)"><path d="M503.08,522.3C179.26,552.79,133.91,359.63,133.91,359.63c-24.79-67.13-3.45-111,27.66-152.68c30.664377-40.922637,71.175962-73.429598,117.77-94.5c74.9-34.06,126.36-41,126.36-41s216.88-55.77,329.94,112.25c0,0,108,135.55,37.54,221.14c0,0-35.14,47.34-127.63,82.89l-69.3,20.46c-23.880372,7.041806-48.383525,11.76696-73.17,14.11Z" fill="#09759f"/><path d="M503.08,522.3C179.26,552.79,133.91,359.63,133.91,359.63c-24.79-67.13-3.45-111,27.66-152.68c30.664377-40.922637,71.175962-73.429598,117.77-94.5c74.9-34.06,126.36-41,126.36-41s216.88-55.77,329.94,112.25c0,0,108,135.55,37.54,221.14c0,0-35.14,47.34-127.63,82.89l-69.3,20.46c-23.880372,7.041806-48.383525,11.76696-73.17,14.11Z" opacity="0.7" fill="#fff"/></g></g><g transform="matrix(1.062591 0 0 1.021498-21.047476-8.188587)"><g transform="translate(0 0.000001)"><rect width="463.2" height="348.88" rx="0" ry="0" transform="translate(104.67 206.46)" fill="#fff"/><rect width="459.44" height="35.42" rx="0" ry="0" transform="translate(108.43 206.46)" fill="#e6e6e6"/><rect width="104.13" height="104.13" rx="0" ry="0" transform="translate(128.82 259.06)" opacity="0.29" fill="#09759f"/></g><g><rect width="66.55" height="17.18" rx="0" ry="0" transform="translate(256.57 259.06)" opacity="0.29" fill="#09759f"/><path d="M308.78,293.79h-52.21c-.408816.039476-.80464-.156351-1.021304-.505272s-.216665-.790536,0-1.139456.612488-.544748,1.021304-.505272h52.21c.408816-.039476.80464.156351,1.021304.505272s.216665.790536,0,1.139456-.612488.544748-1.021304.505272Z" fill="#e6e6e6"/><path d="M325.8,306.67h-69.23c-.382274,0-.73551-.203941-.926647-.535s-.191137-.738941,0-1.07.544373-.535.926647-.535h69.23c.382274,0,.73551.203941.926647.535s.191137.738941,0,1.07-.544373.535-.926647.535Z" fill="#e6e6e6"/><path d="M339.76,319.55h-83.19c-.382274,0-.73551-.203941-.926647-.535s-.191137-.738941,0-1.07.544373-.535.926647-.535h83.19c.590945,0,1.07.479055,1.07,1.07s-.479055,1.07-1.07,1.07Z" fill="#e6e6e6"/><path d="M379.48,332.44h-122.91c-.408816.039476-.80464-.156351-1.021304-.505272s-.216665-.790536,0-1.139456.612488-.544748,1.021304-.505272h122.91c.553685.053464.976197.51874.976197,1.075s-.422512,1.021536-.976197,1.075Z" fill="#e6e6e6"/><rect width="154.58" height="15.03" rx="0" ry="0" transform="translate(256.57 348.15)" opacity="0.29" fill="#09759f"/><path d="M252.45,400.29h-122c-.553685-.053464-.976197-.51874-.976197-1.075s.422512-1.021536.976197-1.075h122c.408816-.039476.80464.156351,1.021304.505272s.216665.790536,0,1.139456-.612488.544748-1.021304.505272Z" fill="#e6e6e6"/><path d="M353.18,400.29h-84.27c-.553685-.053464-.976197-.51874-.976197-1.075s.422512-1.021536.976197-1.075h84.27c.553685.053464.976197.51874.976197,1.075s-.422512,1.021536-.976197,1.075Z" fill="#e6e6e6"/><path d="M417.59,400.29h-29.53c-.553685-.053464-.976197-.51874-.976197-1.075s.422512-1.021536.976197-1.075h29.53c.553685.053464.976197.51874.976197,1.075s-.422512,1.021536-.976197,1.075Z" fill="#e6e6e6"/><rect width="5.37" height="5.37" rx="0" ry="0" transform="translate(256.57 396.53)" opacity="0.29" fill="#09759f"/><rect width="5.37" height="5.37" rx="0" ry="0" transform="translate(360.69 396.53)" opacity="0.29" fill="#09759f"/><rect width="5.37" height="5.37" rx="0" ry="0" transform="translate(373.57 396.53)" fill="#ccc"/><path d="M223.29,429.16h-92.29c-.553685-.053464-.976197-.51874-.976197-1.075s.422512-1.021536.976197-1.075h92.32c.553685.053464.976197.51874.976197,1.075s-.422512,1.021536-.976197,1.075Z" fill="#e6e6e6"/><path d="M289.84,455.37h-159.94c-.408816.039476-.80464-.156351-1.021304-.505272s-.216665-.790536,0-1.139456.612488-.544748,1.021304-.505272h159.94c.408816-.039476.80464.156351,1.021304.505272s.216665.790536,0,1.139456-.612488.544748-1.021304.505272Z" fill="#e6e6e6"/><path d="M325.27,429.16h-70.27c-.408816.039476-.80464-.156351-1.021304-.505272s-.216665-.790536,0-1.139456.612488-.544748,1.021304-.505272h70.31c.553685.053464.976197.51874.976197,1.075s-.422512,1.021536-.976197,1.075Z" fill="#e6e6e6"/><path d="M349.42,455.37h-36c-.553685-.053464-.976197-.51874-.976197-1.075s.422512-1.021536.976197-1.075h36c.553685.053464.976197.51874.976197,1.075s-.422512,1.021536-.976197,1.075Z" fill="#e6e6e6"/><rect width="5.37" height="5.37" rx="0" ry="0" transform="translate(227.58 425.4)" opacity="0.29" fill="#09759f"/><rect width="5.37" height="5.37" rx="0" ry="0" transform="translate(240.46 425.4)" fill="#ccc"/><rect width="5.37" height="5.37" rx="0" ry="0" transform="translate(290.92 451.61)" opacity="0.29" fill="#09759f"/><rect width="5.37" height="5.37" rx="0" ry="0" transform="translate(303.8 451.61)" fill="#ccc"/><path d="M355.32,512.93h-56.89c-.553685-.053464-.976197-.51874-.976197-1.075s.422512-1.021536.976197-1.075h56.89c.408816-.039476.80464.156351,1.021304.505272s.216665.790536,0,1.139456-.612488.544748-1.021304.505272Z" fill="#e6e6e6"/><path d="M416,512.93h-27.94c-.553685-.053464-.976197-.51874-.976197-1.075s.422512-1.021536.976197-1.075h27.94c.408816-.039476.80464.156351,1.021304.505272s.216665.790536,0,1.139456-.612488.544748-1.021304.505272Z" fill="#e6e6e6"/><rect width="5.37" height="5.37" rx="0" ry="0" transform="translate(361.77 509.17)" fill="#ccc"/><rect width="5.37" height="5.37" rx="0" ry="0" transform="translate(374.65 509.17)" opacity="0.29" fill="#09759f"/><path d="M416,455.37h-40.28c-.553685-.053464-.976197-.51874-.976197-1.075s.422512-1.021536.976197-1.075h40.28c.408816-.039476.80464.156351,1.021304.505272s.216665.790536,0,1.139456-.612488.544748-1.021304.505272Z" fill="#e6e6e6"/><rect width="5.37" height="5.37" rx="0" ry="0" transform="translate(353.18 451.61)" fill="#ccc"/><rect width="5.37" height="5.37" rx="0" ry="0" transform="translate(366.06 451.61)" opacity="0.29" fill="#09759f"/><path d="M205,485h-74c-.553685-.053464-.976197-.51874-.976197-1.075s.422512-1.021536.976197-1.075h74c.553685.053464.976197.51874.976197,1.075s-.422512,1.021536-.976197,1.075Z" fill="#e6e6e6"/><path d="M349.42,485h-52.6c-.553685-.053464-.976197-.51874-.976197-1.075s.422512-1.021536.976197-1.075h52.6c.553685.053464.976197.51874.976197,1.075s-.422512,1.021536-.976197,1.075Z" fill="#e6e6e6"/><path d="M416,485h-52.62c-.408816.039476-.80464-.156351-1.021304-.505272s-.216665-.790536,0-1.139456.612488-.544748,1.021304-.505272h52.62c.408816-.039476.80464.156351,1.021304.505272s.216665.790536,0,1.139456-.612488.544748-1.021304.505272Z" fill="#e6e6e6"/><rect width="5.37" height="5.37" rx="0" ry="0" transform="translate(207.19 481.26)" fill="#ccc"/><rect width="5.37" height="5.37" rx="0" ry="0" transform="translate(220.07 481.26)" opacity="0.29" fill="#09759f"/><rect width="5.37" height="5.37" rx="0" ry="0" transform="translate(231.88 481.26)" fill="#ccc"/><path d="M256.57,512.93h-125.57c-.553685-.053464-.976197-.51874-.976197-1.075s.422512-1.021536.976197-1.075h125.6c.553685.053464.976197.51874.976197,1.075s-.422512,1.021536-.976197,1.075Z" fill="#e6e6e6"/><rect width="5.37" height="5.37" rx="0" ry="0" transform="translate(258.71 509.17)" fill="#ccc"/><rect width="5.37" height="5.37" rx="0" ry="0" transform="translate(271.59 509.17)" opacity="0.29" fill="#09759f"/><rect width="5.37" height="5.37" rx="0" ry="0" transform="translate(283.4 509.17)" fill="#ccc"/><rect width="5.37" height="5.37" rx="0" ry="0" transform="translate(244.76 481.26)" opacity="0.29" fill="#09759f"/><rect width="5.37" height="5.37" rx="0" ry="0" transform="translate(259.79 481.26)" fill="#ccc"/><rect width="5.37" height="5.37" rx="0" ry="0" transform="translate(271.59 481.26)" opacity="0.29" fill="#09759f"/><rect width="5.37" height="5.37" rx="0" ry="0" transform="translate(284.48 481.26)" fill="#ccc"/><path d="M417.59,429.16h-59.59c-.408816.039476-.80464-.156351-1.021304-.505272s-.216665-.790536,0-1.139456.612488-.544748,1.021304-.505272h59.58c.553685.053464.976197.51874.976197,1.075s-.422512,1.021536-.976197,1.075Z" fill="#e6e6e6"/><rect width="5.37" height="5.37" rx="0" ry="0" transform="translate(330.63 425.4)" opacity="0.29" fill="#09759f"/><rect width="5.37" height="5.37" rx="0" ry="0" transform="translate(343.52 425.4)" fill="#ccc"/></g></g><g id="e81yOHZpPta58_to" transform="translate(420.476191,103.008988)"><g transform="translate(-421.292919,-100.106026)"><rect width="325.8" height="139.55" rx="0" ry="0" transform="translate(241.54 44.36)" fill="#09759f"/><rect width="100.91" height="65.48" rx="0" ry="0" transform="translate(263.01 83.01)" opacity="0.3" fill="#fff"/><g opacity="0.3"><path d="M297.36,131.59c-.285912-.000843-.559595-.116078-.76-.32l-14.79-14.76c-.403853-.418451-.403853-1.081549,0-1.5L296.6,99.45c.405929-.430782,1.084218-.450929,1.515-.045s.450929,1.084218.045,1.515l-14.07,14.81l14.05,14c.202749.200934.316807.47455.316807.76s-.114058.559066-.316807.76c-.203201.214325-.484675.337019-.78.34Z" fill="#fff"/></g><g opacity="0.3"><path d="M328.73,132.66c-.284684.002922-.558577-.108798-.76-.31-.202749-.200934-.316807-.47455-.316807-.76s.114058-.559066.316807-.76l14-14L328,102c-.309221-.269648-.438952-.69122-.334832-1.088066s.42411-.700425.825883-.783529.815938.068619,1.068949.391595l14.78,15.56c.199074.198826.310934.468642.310934.75s-.11186.551174-.310934.75l-14.78,14.77c-.218879.218405-.521538.331447-.83.31Z" fill="#fff"/></g><g opacity="0.3"><path d="M305.56,131.59c-.379471.011522-.737124-.177047-.942006-.496663s-.2269-.723335-.057994-1.063337l14.34-28.18c.178633-.342975.526671-.564597.913013-.581384s.752291.173812.96.5.22562.738409.046987,1.081384L306.51,131c-.180521.359666-.54758.587629-.95.59Z" fill="#fff"/></g><g transform="translate(.000001 0)"><path d="M524.39,119.51h-69.77c-.553685-.053464-.976197-.51874-.976197-1.075s.422512-1.021536.976197-1.075h69.77c.408816-.039476.80464.156351,1.021304.505272s.216665.790536,0,1.139456-.612488.544748-1.021304.505272Z" fill="#fff"/><path d="M540.5,132.39h-85.88c-.553685-.053464-.976197-.51874-.976197-1.075s.422512-1.021536.976197-1.075h85.88c.553685.053464.976197.51874.976197,1.075s-.422512,1.021536-.976197,1.075Z" fill="#fff"/><rect width="65.48" height="16.1" rx="7.5" ry="7.5" transform="translate(460.52 153.86)" opacity="0.3" fill="#fff"/><path d="M567.33,44.36v139.55h-325.79c0,0,54.75-59.1,144.51-74c4.1-.68,8.24-1.12,12.38-1.4c27.98-1.91,159.36-13.33,168.9-64.15Z" opacity="0.3" fill="#fff"/></g></g></g><g id="e81yOHZpPta72_to" transform="translate(125.07,234.899994)"><g transform="translate(-126.868268,-235.364455)"><rect width="187.86" height="213.62" rx="0" ry="0" transform="translate(31.14 128.09)" fill="#09759f"/><rect width="187.86" height="34.35" rx="0" ry="0" transform="translate(31.14 128.09)" opacity="0.3" fill="#fff"/><rect width="57.97" height="57.97" rx="0" ry="0" transform="translate(46.17 173.18)" fill="#011126"/><circle r="3.76" transform="translate(164.78 145.27)" opacity="0.3" fill="#fff"/><circle r="3.76" transform="translate(184.11 145.27)" opacity="0.3" fill="#fff"/><circle r="3.76" transform="translate(203.43 145.27)" opacity="0.3" fill="#fff"/><path d="M170.69,192.5h-53.69c-.382274,0-.73551-.203941-.926647-.535s-.191137-.738941,0-1.07.544373-.535.926647-.535h53.67c.590945,0,1.07.479055,1.07,1.07s-.479055,1.07-1.07,1.07Z" fill="#fff"/><path d="M186.25,205.38h-68.7c-.590945,0-1.07-.479055-1.07-1.07s.479055-1.07,1.07-1.07h68.7c.382274,0,.73551.203941.926647.535s.191137.738941,0,1.07-.544373.535-.926647.535Z" fill="#fff"/><path d="M203.43,218.27h-85.88c-.553685-.053464-.976197-.51874-.976197-1.075s.422512-1.021536.976197-1.075h85.88c.553685.053464.976197.51874.976197,1.075s-.422512,1.021536-.976197,1.075Z" fill="#fff"/><path d="M168,287h-83.72c-.408816.039476-.80464-.156351-1.021304-.505272s-.216665-.790536,0-1.139456.612488-.544748,1.021304-.505272h83.72c.553685.053464.976197.51874.976197,1.075s-.422512,1.021536-.976197,1.075Z" fill="#fff"/><path d="M194.84,299.85h-137.4c-.408816.039476-.80464-.156351-1.021304-.505272s-.216665-.790536,0-1.139456.612488-.544748,1.021304-.505272h137.4c.408816-.039476.80464.156351,1.021304.505272s.216665.790536,0,1.139456-.612488.544748-1.021304.505272Z" fill="#fff"/><path d="M168.54,312.73h-84.8c-.408816.039476-.80464-.156351-1.021304-.505272s-.216665-.790536,0-1.139456.612488-.544748,1.021304-.505272h84.8c.408816-.039476.80464.156351,1.021304.505272s.216665.790536,0,1.139456-.612488.544748-1.021304.505272Z" fill="#fff"/><rect width="78.36" height="16.1" rx="0" ry="0" transform="translate(83.74 248.32)" opacity="0.3" fill="#fff"/></g></g><rect width="95.454495" height="59.662533" rx="0" ry="0" transform="translate(55.913214 439.059511)" fill="#09759f"/><g><g opacity="0.3"><path d="M88.5,485.36c-.276342.000282-.541868-.107364-.74-.3l-15.5-14.83c-.211616-.200209-.331508-.478684-.331508-.77s.119892-.569791.331508-.77l15.49-15c.200934-.202749.47455-.316807.76-.316807s.559066.114058.76.316807c.416889.420912.416889,1.099088,0,1.52l-14.7,14.25l14.69,14.06c.202749.200934.316807.47455.316807.76s-.114058.559066-.316807.76c-.202255.20118-.474757.315917-.76.32Z" fill="#fff"/></g><g opacity="0.3"><path d="M119.16,485.36c-.435716-.001206-.827183-.266498-.989761-.670748s-.063794-.866708.249761-1.169252l14.69-14.26-14.69-14.06c-.428021-.408691-.443691-1.086979-.035-1.515s1.086979-.443691,1.515-.035l15.5,14.83c.21008.201148.329224.47915.33.77.003413.292616-.112064.574091-.32.78l-15.5,15c-.196946.204248-.466358.322789-.75.33Z" fill="#fff"/></g><g opacity="0.3"><path d="M96.62,483.41c-.173762-.000313-.345023-.041416-.5-.12-.252652-.131906-.442238-.359159-.526715-.631364s-.056865-.566865.076715-.818636l14-26.83c.164158-.366577.518187-.611773.919077-.636543s.78241.174979.990447.518559.20822.774227.000476,1.117984l-14,26.83c-.185903.356783-.55776.577574-.96.57Z" fill="#fff"/></g></g><g transform="translate(.000001 0)"><rect width="5.37" height="37.57" rx="0" ry="0" transform="translate(713.86 369.62)" fill="#999"/><polygon points="664.89,442.18 664.89,554.44 672.53,554.44 676.93,436.58 664.89,442.18" fill="#ccc"/><polygon points="711.71,420.08 711.71,537.08 719.36,537.08 723.52,414.71 711.71,420.08" fill="#ccc"/><polygon points="668.23,434.1 733.18,405.05 703.86,399.96 670.01,385.44 668.23,434.1" fill="#ccc"/><path d="M656.14,446.25l77-35.83v-5.37L668.23,434.1c0,0-7.55,8.26-12.09,12.15Z" fill="#b3b3b3"/><path d="M693.46,271.94h40.54c2.512896,0,4.55,2.037104,4.55,4.55v67.37h-45.09v-71.92Z" fill="#999"/></g><g id="e81yOHZpPta101_to" transform="translate(603.305008,384.311859)"><g transform="translate(-604.38,-383.213271)"><rect width="11.81" height="208.25" rx="0" ry="0" transform="translate(434.76 367.48)" fill="#999"/><rect width="5.37" height="208.25" rx="0" ry="0" transform="translate(441.2 367.48)" opacity="0.1"/><rect width="11.81" height="172.29" rx="0" ry="0" transform="translate(471.26 368.01)" fill="#999"/><rect width="5.37" height="172.29" rx="0" ry="0" transform="translate(477.7 368.01)" opacity="0.1"/><rect width="11.81" height="208.25" rx="0" ry="0" transform="translate(728.89 367.48)" fill="#999"/><rect width="5.37" height="208.25" rx="0" ry="0" transform="translate(735.33 367.48)" opacity="0.1"/><rect width="11.81" height="186.25" rx="0" ry="0" transform="translate(758.95 354.06)" fill="#999"/><rect width="5.37" height="186.25" rx="0" ry="0" transform="translate(765.39 354.06)" opacity="0.1"/><path d="M688.1,271.94h40.53c2.512896,0,4.55,2.037104,4.55,4.55v67.37h-45.08v-71.92Z" fill="#b3b3b3"/><polygon points="421.88,364.26 477.27,336.37 786.88,336.37 750.36,364.26 421.88,364.26" fill="#ccc"/><path d="M542.11,559.63l-32.5,25.42c0,0-13.61,12.15-1.85,19.66c0,0,17.17,10.74,31.13-7.51l19.37-31.64Z" fill="#09759f"/><path d="M505.61,596.12c8,8.68,20.58,6.87,28.45-1c3.7-3.79,7-8.33,10.52-12.3c3.08-3.62,7.51-8.79,10.65-12.28-2.8,3.74-7.06,9.09-10,12.81-3.41,4.12-6.73,8.65-10.42,12.54-8.21,8.11-21.45,9.88-29.19.26Z" opacity="0.2"/><path d="M512.32,583.74c6.45-.09,13.31,2.42,17.35,7.63c1.327783,1.730373,2.278209,3.719795,2.79,5.84-.26-.47-.51-1-.74-1.43-.226611-.480967-.497796-.939639-.81-1.37-4-6.39-11.44-9.4-18.59-10.67Z" opacity="0.2"/><path d="M519.56,580c4.83-.65,11.72.93,12.9,6.4-2.62-4.61-8.1-5.41-12.9-6.4Z" opacity="0.2"/><path d="M523.86,575.73c4.82-.65,11.72.93,12.89,6.39-2.61-4.6-8.1-5.4-12.89-6.39Z" opacity="0.2"/><path d="M532.45,569.29c4.82-.65,11.72.93,12.89,6.39-2.61-4.61-8.1-5.4-12.89-6.39Z" opacity="0.2"/><path d="M550.16,544.06l-8,15.57c0,0-3.32,4,1.25,6.48c1.249259.6654,2.644612,1.009083,4.06,1h7.9c1.166394.001182,2.261489-.561265,2.94-1.51L568,551.93c0,0-13.59-5.23-17.84-7.87Z" fill="#f9b499"/><polygon points="548.32,510.23 551.84,520.86 557.18,505.66 548.32,510.23" fill="#f9b499"/><path d="M710.77,332.4c0,8.24-5.5,8.24-5.5,8.24l-15,5.37c-6.68,2.23-9.44,1.89-10.5,1.46-.445966-.168385-.943459-.131805-1.36.1-.022158.025395-.049416.045839-.08.06-1.157407.808879-2.45157,1.401755-3.82,1.75v0c-2.89.58-2.48-2.31-2.48-2.31.097847-.508801.164637-1.023085.2-1.54.141551-4.009418-2.148246-7.708625-5.8-9.37-1.533014-.710274-3.130236-1.272818-4.77-1.68-1.008079-.24988-2.061921-.24988-3.07,0l-8.33,1.91h-41.87L570,335.27c-3.568498-22.625793.881292-45.787338,12.58-65.48c2.565219-4.409463,5.516803-8.582507,8.82-12.47.72-.84,1.14-1.27,1.14-1.27l2.37-3.43c0,0,32,2.14,32.37,1.07s22.15-14,22.15-14l30.76,13c1.365162.601836,2.588348,1.484302,3.59,2.59c6.62,6.85,11.81,23.17,11.81,23.17l14,46.16c.724234,2.535654,1.120792,5.15361,1.18,7.79Z" fill="#09759f"/><path d="M675.8,305c0,0-30.74,5-53.75.22-.59-.12-1.17-.27-1.75-.43-9.042441-2.382831-18.404153-3.324402-27.74-2.79l-22.06-.18-1.09,7.3h36.87c0,0,12,.39,21.7,3.61c0,0,9.66,3.22,29,1.07l21.82-2.66Z" fill="#011126"/><path d="M683.8,255.21c-20.39,2.6-56.89,14.58-56.89,14.58-8.59-6.44-35.49-12.47-35.49-12.47.72-.84,1.14-1.27,1.14-1.27l2.37-3.43c0,0,32,2.14,32.37,1.07s22.15-14,22.15-14l30.76,13c1.35884.581296,2.581531,1.439564,3.59,2.52Z" opacity="0.2"/><path d="M620.1,254.32c-.408625.107774-.8225.194554-1.24.26-7.26,1.28-14.75-1.87-20.74-8-5.281467-5.546317-8.985779-12.402573-10.73-19.86-4.59-18.58,2.63-36.33,16.12-39.66s28.13,9,32.72,27.59-2.63,36.35-16.13,39.67Z" fill="#f9b499"/><ellipse rx="1.61" ry="3.22" transform="translate(639.26 215.05)" fill="none" stroke="#f00" stroke-width="0.75" stroke-miterlimit="10"/><path d="M651.6,210.75c0,0,17.18,9.45-10.73,18.14-.32525-1.190708-.506544-2.416122-.54-3.65-.041065-1.53151.140839-3.060851.54-4.54l-8.59-4.36c0,0-4.67.85-7.17-4.52c0,0-8.93,0-7.86-6.44c0,0-6.44,4.3-8.59-1.07c0,0-9.69,6.88-19.33-4.62c0,0-4.28,7.84-3,21c0,0-6.34,5.08-9.93.38-.802821-1.095857-1.249639-2.411876-1.28-3.77-.177874-2.322733,1.105913-4.51155,3.22-5.49s-7.77-2.89-7.56-9.28c.08536-1.647798.569196-3.250291,1.41-4.67s1.61-4,7.63-2.31v0c1.06743.322389,2.104696.737295,3.1,1.24s-8.21-17.26,3.4-28.49c0,0,19.14-19.82,26.66,4.87c0,0,6.55-10.14,17-7.62v0c.766957.183371,1.519069.424047,2.25.72s7.51,2,6.44,14.1c0,0,9.66-8.28,18.25,1.38c0,0,6.44,7.89,0,16.28.08.02,3.27,7.35-5.32,12.72Z" fill="#011126"/><path d="M590.41,197.6c0,0-3.22-10.46,6.44-16.91c0,0,6.93-4.51,16.49,1.46.958367.623775,1.870713,1.315554,2.73,2.07c2.929514,2.584788,6.683783,4.041827,10.59,4.11s11-.47,12.6,12c0,0-12.35-10.72-21.47-5.54c0,0-4.83-15.22-17.72-10.93c0,.05-7.51,2.2-9.66,13.74Z" opacity="0.2"/><path d="M579.79,195.56c-5.23.93-9,7-9,7c.08536-1.647798.569196-3.250291,1.41-4.67s1.57-4.05,7.59-2.33Z" opacity="0.2"/><path d="M651.6,210.75c0,0,17.18,9.45-10.73,18.14-.485301-1.151555-.671075-2.407255-.54-3.65.076795-.71288.25877-1.410451.54-2.07l4.29-6.83v0c3.22-1.93,3.22-6.66,3.22-6.66c1.859128-.741616,3.46616-2.001556,4.63-3.63c1.729705-2.387082,2.139539-5.485275,1.09-8.24-2.23-5.68-8.94-4.09-8.94-4.09c2.15-16-7.52-10.85-7.52-10.85-1-14.52-7.22-17.15-7.61-17.3.766957.183371,1.519069.424047,2.25.72s7.51,2,6.44,14.1c0,0,9.66-8.28,18.25,1.38c0,0,6.44,7.89,0,16.28.03,0,3.22,7.33-5.37,12.7Z" opacity="0.2"/><path d="M659.11,241.88l-26.83,22.77c-4.3,3.45-6.44.85-6.44.85l-1.19-1.87-5.79-9c20.4-4.65,18.67-31.41,18.67-31.41h3.34c-.547003,3.867314.205719,7.806789,2.14,11.2c3.91-1.57,9-1.42,11.4-1.23.977174.067298,1.945255.231437,2.89.49c8.63,2.32,1.81,8.2,1.81,8.2Z" fill="#f9b499"/><path d="M659.11,241.88l-26.83,22.77c-4.3,3.45-6.44.85-6.44.85l-1.19-1.87c11.69-5.09,23-18.83,23-18.83c4.06-6-2.64-9.53-4.26-10.28-.056344-.026283-.092361-.082827-.092361-.145s.036017-.118717.092361-.145c3.86-1.42,8.68-1.27,11-1.09.977174.067298,1.945255.231437,2.89.49c8.65,2.37,1.83,8.25,1.83,8.25Z" fill="#f7a48b"/><path d="M618.86,254.58l3.07,4.81c0,0,18.66-10.53,15-26.36.07-.03-1.43,18.15-18.07,21.55Z" fill="#f7a48b"/><path d="M599,253.69c6.603812,1.022563,12.969041,3.227866,18.79,6.51" fill="none" stroke="#f00" stroke-width="0.75" stroke-miterlimit="10"/><path d="M710.77,332.4c0,8.24-5.5,8.24-5.5,8.24l-15,5.37c-6.68,2.23-9.44,1.89-10.5,1.46-.445966-.168385-.943459-.131805-1.36.1.36-.24,1.68-1.46-.08-5l-5.63-8.42c-.170206-.261314-.224852-.581351-.151-.884337s.269639-.561982.541-.715663c.167389-.095323.357407-.143691.55-.14.35959-.001643.6981.169473.91.46l7.14,9.93c0,0,1.07,4.29,15-2.15c0-.01,12.06-4.65,14.08-8.25Z" opacity="0.2"/><path d="M674.48,349.38v0c-2.89.58-2.48-2.31-2.48-2.31.097847-.508801.164637-1.023085.2-1.54.141551-4.009418-2.148246-7.708625-5.8-9.37-1.533014-.710274-3.130236-1.272818-4.77-1.68s8.22-3.51,12.51,7.22c0,.01,1.32,4.65.34,7.68Z" opacity="0.2"/><path d="M677.36,323.46c0,0-14,5.89-18.8,11l-8.33,1.91h-41.84L570,335.27c-3.568498-22.625793.881292-45.787338,12.58-65.48.3,0,8.89,2.15,17.47,32.21c0,0,8.53,31.81,22,30.4h23.5c0,0,21.08.73,21.08-13.23v-21.47c0,0,.65-8.42,4.09-3.13L681.66,317c0,0,2.14,4.32-4.3,6.46Z" opacity="0.2"/><path d="M680.58,258c-8.42,6.71-12.77,17.28-12.88,27.91-.1-1.33-.27-2.68-.25-4c0-9.45,4.89-19.05,13.13-23.89Z" opacity="0.2"/><path d="M640.87,324v0c-.294316-.010854-.525654-.255538-.52-.55l1.07-32.21c0-21.29,5.35-36.51,5.4-36.66.103124-.278027.411151-.42088.69-.32.132844.047424.241304.145846.301365.273475s.066767.273936.018635.406525c0,.15-5.33,15.2-5.33,36.32l-1.08,32.22c-.010854.294316-.255538.525654-.55.52Z" fill="#011126"/><path d="M614,327.22v0c-.294316-.010854-.525654-.255538-.52-.55l1.08-31.13c-.02936-11.354452.870308-22.692272,2.69-33.9.024316-.139691.10359-.263813.220102-.34462s.260544-.111558.399898-.08538c.292499.055552.48485.337368.43.63-1.801463,11.145815-2.694401,22.419568-2.67,33.71l-1.07,31.15c-.016106.295888-.263731.525826-.56.52Z" fill="#011126"/><g opacity="0.2"><path d="M640.87,324v0c-.294316-.010854-.525654-.255538-.52-.55l1.07-32.21c0-21.29,5.35-36.51,5.4-36.66.103124-.278027.411151-.42088.69-.32.132844.047424.241304.145846.301365.273475s.066767.273936.018635.406525c0,.15-5.33,15.2-5.33,36.32l-1.08,32.22c-.010854.294316-.255538.525654-.55.52Z"/><path d="M614,327.22v0c-.294316-.010854-.525654-.255538-.52-.55l1.08-31.13c-.02936-11.354452.870308-22.692272,2.69-33.9.024316-.139691.10359-.263813.220102-.34462s.260544-.111558.399898-.08538c.292499.055552.48485.337368.43.63-1.801463,11.145815-2.694401,22.419568-2.67,33.71l-1.07,31.15c-.016106.295888-.263731.525826-.56.52Z"/></g><path d="M706.34,371.77c0,.17,0,8.76-2.14,25.76l-.34,2.43c-.323837,2.410214-.497505,4.838232-.52,7.27-.06,3.84-2.56,11.15-21.3,8.21.49-.83.94-1.65,1.36-2.49l.35-.68c1.57-3,3.69-7.58,4.35-11.52c0,0-59-5.36-78.37-12.88c0,0-28.3-11.81-38.84-8.05l-8.39,7c0,0-7.51-2.15,3.22-15Z" fill="#09759f"/><path d="M688.1,400.75c0,0,13.8.92,13.29,7-.105603,1.136152-.6914,2.173121-1.61,2.85-1.84,1.41-6.25,3.29-16.15,1.89c1.877412-3.754636,3.374854-7.687516,4.47-11.74Z" opacity="0.2"/><path d="M564.14,385.44c0,0-6.33-4,6.75-5.62Z" opacity="0.2"/><path d="M688.1,400.75c-1.004653,3.993726-2.464197,7.859-4.35,11.52l-.35.68c-.23.43-.44.81-.63,1.15s-.47.89-.73,1.34c-13.3,23.42-41.56,44.44-53.06,52.37-3.073438,2.106408-5.014741,5.502767-5.27,9.22-2.38,36.84-19.34,68.64-19.34,68.64-3.61,5.17-9,7.66-15,8.46-19.1,2.58-45.12-11.68-45.12-11.68l14-39.72c11.81-44,23.61-56.89,23.61-56.89l26.54-55.12l1.37-2.85c19.29,7.52,78.33,12.88,78.33,12.88Z" fill="#011126"/><path d="M688.1,400.75c-1.004653,3.993726-2.464197,7.859-4.35,11.52l-.35.68c-.23.43-.44.81-.63,1.15s-.47.89-.73,1.34c-13.3,23.42-41.56,44.44-53.06,52.37-3.073438,2.106408-5.014741,5.502767-5.27,9.22-2.38,36.84-19.34,68.64-19.34,68.64-3.61,5.17-9,7.66-15,8.46c20-25.72,31.27-83,31.27-83-.89-13.33,38.47-47.86,38.47-47.86c15-15-4.29-19.33-4.29-19.33-17.27-2.72-39.92-10.84-46.46-13.25l1.37-2.85c19.33,7.55,78.37,12.91,78.37,12.91Z" opacity="0.2"/><path d="M589.37,430.17l-33.31,13.52l13,26c0,0-5.54,16.19-11.4,35.76c0,0-13.42,9.12-27.37,8.05c0,0-11.81-30.06-18.25-61.19c0,0-8.59-18.25,6.44-30.06L562,387.05l8.93-7.23c0,0,6.64-4.83,38.84,8.05Z" fill="#011126"/><path d="M547.62,532.88L526.35,549.3c-2.070507,1.628737-4.36384,2.952203-6.81,3.93-3.21,1.25-7.85,4-6.84,9.17.574391,2.745703,2.473916,5.027381,5.07,6.09c2.55,1.06,6.59,1.78,12.53.37l11.81-9.23l7.47-14.54-5.33-2.64Z" fill="#09759f"/><path d="M547.62,532.88L526.35,549.3c-2.070507,1.628737-4.36384,2.952203-6.81,3.93-3.21,1.25-7.85,4-6.84,9.17.574391,2.745703,2.473916,5.027381,5.07,6.09c2.55,1.06,6.59,1.78,12.53.37l11.81-9.23l7.47-14.54-5.33-2.64Z" opacity="0.2"/><path d="M589.37,430.17l-33.31,13.52l13,26c-3.346129,12.195121-7.31466,24.21086-11.89,36s-12.93,8.88-26.88,7.81c39.72-3.22,20.78-67.22,20.78-67.22-4.38-9.78,2.19-12.65,6.18-13.48c2.547908-.524654,5.054466-1.233174,7.5-2.12l10.06-3.7c7.501304-2.682823,13.59981-8.283639,16.91-15.53c1.179509-2.634145,1.932258-5.439232,2.23-8.31.62131-6.826533-3.705785-13.128128-10.3-15-8.42-2.48-16.86-1.84-21.7-1.1l8.93-7.23c0,0,6.64-4.83,38.84,8.05Z" opacity="0.2"/><path d="M512.56,561c8,4.49,17.84,3.92,26,.25c1.19-.51,2.33-1.14,3.54-1.66-1.08.73-2.18,1.45-3.3,2.13-8,4.53-18.78,5.1-26.25-.72Z" opacity="0.2"/><path d="M524.65,550.52c4.14,1.84,12.18,6.84,12.1,11.9-.72-2.81-3.3-4.59-5.35-6.46s-4.5-3.57-6.75-5.44Z" opacity="0.2"/><path d="M530.3,546.25c3.1.44,5.52,3.24,6.45,6.1-2.23-2.05-4-4.27-6.45-6.1Z" opacity="0.2"/><path d="M534.32,543.14c3.100571.812313,5.586876,3.125853,6.62,6.16-2.17-2.19-4.35-4-6.62-6.16Z" opacity="0.2"/><path d="M538.89,539.61c2.546012,1.460685,4.456841,3.817137,5.36,6.61-2.098722-1.930842-3.904417-4.157641-5.36-6.61Z" opacity="0.2"/><rect width="328.48" height="7.51" rx="0" ry="0" transform="translate(421.88 364.26)" fill="#b3b3b3"/><polygon points="750.36,364.26 750.36,371.77 786.86,342.79 786.88,336.37 750.36,364.26" fill="#999"/><path d="M507.76,344.93h98.07l-7.33-63.74c-.310941-2.842703-2.710344-4.996565-5.57-5h-90c-.840164.015095-1.635486.381862-2.192452,1.011062s-.824515,1.46315-.737548,2.298938Z" fill="#09759f"/><path d="M605.83,344.93h-98.07L500,279.54c-.087239-.839203.182941-1.676349.744308-2.306221s1.362021-.994239,2.205692-1.003779h90c2.855832.008522,5.249484,2.161086,5.56,5Z" opacity="0.3" fill="#fff"/><polygon points="583.53,276.23 507.76,341.71 506.12,329.04 567.52,276.23 583.53,276.23" opacity="0.3" fill="#fff"/><path d="M517.07,344.93l79.55-67.31c1.019988.937299,1.684233,2.198658,1.88,3.57l.38,3.34-71.09,60.4Z" opacity="0.3" fill="#fff"/><rect width="94.46" height="6.44" rx="0" ry="0" transform="translate(507.76 344.93)" fill="#09759f"/><rect width="29.49" height="6.44" rx="0" ry="0" transform="translate(602.22 344.93)" fill="#09759f"/><rect width="29.49" height="6.44" rx="0" ry="0" transform="translate(602.22 344.93)" opacity="0.2"/><polygon points="419.73,353.52 466.38,353.52 499.97,333.94 459.85,333.94 419.73,353.52" fill="#fff"/><rect width="46.65" height="4.65" rx="0" ry="0" transform="translate(419.73 353.52)" fill="#e6e6e6"/><polygon points="499.97,333.94 499.97,339.8 466.38,358.17 466.38,353.52 499.97,333.94" fill="#ccc"/><polygon points="499.97,333.94 499.97,339.8 466.38,358.17 466.38,353.52 499.97,333.94" opacity="0.1"/><path d="M658.56,334.46c0,0-13.47,1.87-20.95,12.08c0,0-10.05,9.15-.18,7.53c0,0,.47,4.68,8.39,1.53c0,0,1.37,3.31,10-1.53c0,0,8.64-4.84,16.16-7c.02.01,3.19-12.36-13.42-12.61Z" fill="#f9b499"/><path d="M646,343.86c-2.261316,3.855876-5.151117,7.306739-8.55,10.21c2.266952-3.851902,5.15602-7.301887,8.55-10.21Z" fill="#f7a48b"/><path d="M645.82,355.6c1.70044-3.0647,4.035873-5.730844,6.85-7.82-1.702961,3.062926-4.037963,5.728579-6.85,7.82Z" fill="#f7a48b"/><ellipse rx="6.44" ry="8.05" transform="translate(638.72 215.58)" fill="#f9b499"/><path d="M640.87,228.89c0,0,12.2-4.93,24.24-3.72c6.734761.734604,12.934247,4.015002,17.33,9.17c4.85,5.6,11.54,15.1,4.38,18.3-2.358272.978947-5.029821.858013-7.29-.33-5-2.49-17.91-6.91-47.79,12.65l27.37-23.08c0,0,6.49-6.48-3.5-8.53-.863125-.168342-1.740615-.252072-2.62-.25-3.369637.057889-6.722865.483749-10,1.27s-2.12-3.44-2.12-5.48Z" fill="#09759f"/><path d="M640.87,228.89c0,0,12.2-4.93,24.24-3.72c6.734761.734604,12.934247,4.015002,17.33,9.17c4.85,5.6,11.54,15.1,4.38,18.3-2.358272.978947-5.029821.858013-7.29-.33-5-2.49-17.91-6.91-47.79,12.65l27.37-23.08c0,0,6.49-6.48-3.5-8.53-.863125-.168342-1.740615-.252072-2.62-.25-3.369637.057889-6.722865.483749-10,1.27s-2.12-3.44-2.12-5.48Z" opacity="0.3" fill="#fff"/><path d="M674.14,234.37c-5.73,6.95-13.48,12.06-21.25,16.49-1.15.58-2.28,1.2-3.44,1.76c8.36-5.92,17-11.41,24.69-18.25Z" opacity="0.3" fill="#fff"/><path d="M683.8,238.66c-4.8,5.34-11.95,8.18-18.91,9.34c6.47-2.57,13.26-5.24,18.91-9.35Z" opacity="0.3" fill="#fff"/><path d="M625.84,265.5c-4.44-2.67-21.36-6.8-27.08-8.15-1.109953-.246923-2.236169-.414017-3.37-.5-4.81-.45-3.9-3.16-3.9-3.16c0-4.29,6.63-7.09,6.63-7.09c6,6.11,13.48,9.26,20.74,8Z" fill="#09759f"/><path d="M625.84,265.5c-4.44-2.67-21.36-6.8-27.08-8.15-1.109953-.246923-2.236169-.414017-3.37-.5-4.81-.45-3.9-3.16-3.9-3.16c0-4.29,6.63-7.09,6.63-7.09c6,6.11,13.48,9.26,20.74,8Z" opacity="0.3" fill="#fff"/><circle r="8.05" transform="translate(551.23 311.12)" fill="#fff"/></g></g></svg>
